<svg aria-label="No image available" viewBox="0 0 1024 1024" xmlns="http://www.w3.org/2000/svg"><path d="M691 333a252 252 0 0 0-432 179 252 252 0 0 0 253 253 252 252 0 0 0 179-432M512 692a180 180 0 1 1 0-360 180 180 0 0 1 0 360"/><path d="M747 277a331 331 0 0 0-567 235 331 331 0 0 0 567 235 331 331 0 0 0 0-470M512 769a257 257 0 1 1 0-514 257 257 0 0 1 0 514"/><path d="M803 221a410 410 0 0 0-702 291 410 410 0 0 0 411 411 410 410 0 0 0 291-702M512 848a336 336 0 1 1 0-672 336 336 0 0 1 0 672"/><path d="M519 27h-8A486 486 0 0 0 26 508v5A486 486 0 1 0 519 27m-7 900a415 415 0 1 1 0-830 415 415 0 0 1 0 830m-1-900h-4zm511 486"/><path d="M374 512a137 137 0 1 1 275 0 138 138 0 1 1-275 0m6 0a132 132 0 1 0 263 0 132 132 0 1 0-263 0"/><path d="M534 512a22 22 0 1 1-44 0 22 22 0 0 1 44 0"/><path d="M0 512a512 512 0 1 1 1024 0A512 512 0 1 1 0 512m152-359a507 507 0 0 0 0 719v-1a507 507 0 0 0 719 0 507 507 0 0 0 0-719 507 507 0 0 0-719 0z"/></svg>